<?xml version="1.0" standalone="no"?>
<!DOCTYPE svg PUBLIC "-//W3C//DTD SVG 20010904//EN"
 "http://www.w3.org/TR/2001/REC-SVG-20010904/DTD/svg10.dtd">
<svg version="1.0" xmlns="http://www.w3.org/2000/svg"
 width="1140.000000pt" height="1280.000000pt" viewBox="0 0 1140.000000 1280.000000"
 preserveAspectRatio="xMidYMid meet">
<metadata>
Created by potrace 1.15, written by Peter Selinger 2001-2017
</metadata>
<g transform="translate(0.000000,1280.000000) scale(0.100000,-0.100000)"
fill="#000000" stroke="none">
<path d="M7650 12786 c-308 -95 -441 -173 -607 -354 -156 -169 -272 -336 -339
-488 -14 -32 -42 -77 -63 -100 -49 -56 -92 -138 -142 -269 -53 -142 -91 -225
-128 -278 -16 -24 -35 -66 -42 -93 -21 -91 -57 -198 -122 -369 -71 -185 -109
-307 -127 -406 -6 -35 -31 -126 -55 -201 -25 -76 -60 -211 -79 -300 -40 -189
-133 -769 -142 -890 -20 -261 99 -692 250 -901 116 -163 381 -369 615 -480
217 -102 621 -211 850 -229 334 -26 694 38 956 170 136 68 188 108 330 253
144 148 192 206 284 353 112 176 155 307 227 686 l46 245 -5 195 c-8 276 -63
704 -122 953 -8 34 -24 123 -36 197 -46 301 -118 588 -214 855 -26 72 -57 168
-70 215 -33 123 -43 146 -142 340 -50 97 -98 201 -107 231 -13 45 -23 61 -56
84 -46 32 -83 76 -168 200 -77 113 -112 147 -237 224 -111 69 -197 112 -283
142 -74 26 -212 34 -272 15z"/>
<path d="M3497 12770 c-125 -32 -347 -170 -471 -294 -161 -159 -259 -301 -382
-551 -115 -235 -190 -440 -327 -896 -98 -326 -211 -954 -252 -1405 -54 -604
31 -1051 280 -1465 84 -139 159 -233 264 -331 203 -191 458 -316 772 -380 97
-19 144 -23 314 -23 210 0 248 5 475 56 414 94 626 183 870 364 351 262 550
613 567 1000 10 239 -63 726 -183 1225 -173 716 -511 1585 -782 2009 -113 177
-206 289 -346 419 -134 124 -255 195 -416 247 -70 22 -108 28 -215 31 -71 2
-147 -1 -168 -6z"/>
<path d="M10096 9005 c-143 -40 -270 -126 -464 -319 -158 -156 -165 -165 -246
-306 -180 -311 -344 -671 -460 -1006 -24 -71 -76 -217 -114 -324 -136 -377
-181 -561 -189 -770 -4 -104 -2 -155 11 -216 9 -45 16 -126 16 -180 0 -172 57
-321 184 -480 94 -117 172 -185 288 -250 226 -127 465 -218 673 -258 132 -24
173 -28 321 -28 227 1 394 39 558 125 83 44 192 140 220 196 9 17 33 42 54 56
107 73 224 227 277 364 13 36 47 125 74 197 78 205 94 298 94 549 1 179 -3
234 -26 375 -14 91 -33 244 -42 340 -32 355 -81 623 -155 855 -45 140 -127
350 -169 434 -68 134 -199 342 -270 429 -75 91 -228 185 -352 216 -78 19 -214
20 -283 1z"/>
<path d="M1017 8994 c-129 -31 -285 -126 -361 -219 -98 -120 -266 -415 -336
-590 -48 -121 -134 -422 -169 -590 -46 -223 -83 -512 -107 -825 -3 -47 -13
-110 -22 -140 -20 -69 -23 -387 -4 -501 45 -268 146 -528 290 -744 78 -117
248 -294 336 -349 174 -110 407 -169 671 -168 233 0 425 41 610 132 447 218
706 587 775 1106 17 122 8 477 -14 599 -29 156 -207 727 -289 925 -56 134
-341 698 -395 780 -209 321 -444 526 -669 584 -75 20 -236 20 -316 0z"/>
<path d="M5405 7180 c-916 -38 -1543 -261 -1926 -685 -91 -101 -155 -203 -363
-579 -176 -317 -250 -436 -360 -574 -77 -97 -314 -262 -921 -642 -409 -256
-723 -464 -864 -574 -134 -104 -336 -303 -437 -431 -294 -372 -458 -794 -471
-1208 -9 -272 31 -482 174 -907 108 -322 149 -427 223 -568 274 -521 696 -867
1188 -973 142 -30 468 -38 652 -14 197 25 391 66 690 146 426 114 590 156 718
183 l121 26 148 -20 c81 -11 288 -44 458 -74 648 -114 695 -118 1210 -117 656
2 985 33 1545 148 350 72 323 69 462 49 168 -23 321 -61 673 -166 492 -146
616 -173 885 -191 377 -26 636 17 920 152 297 141 577 399 732 674 449 794
594 1577 404 2172 -138 435 -460 850 -930 1202 -173 130 -401 282 -731 486
-853 529 -985 650 -1256 1150 -307 567 -394 691 -592 839 -371 278 -844 433
-1482 486 -169 14 -645 20 -870 10z"/>
</g>
</svg>
