<svg width="100" height="113" viewBox="0 0 100 113" fill="none" xmlns="http://www.w3.org/2000/svg">
<g clip-path="url(#clip0_18_3)">
<path d="M67.1049 0.122832C64.4031 0.956165 63.2364 1.64038 61.7803 3.2281C60.4119 4.71055 59.3943 6.17546 58.8066 7.5088C58.6838 7.7895 58.4382 8.18424 58.254 8.38599C57.8242 8.87722 57.447 9.59652 57.0084 10.7456C56.5435 11.9913 56.2101 12.7193 55.8856 13.1842C55.7452 13.3948 55.5785 13.7632 55.5171 14C55.3329 14.7983 55.0171 15.7369 54.447 17.2369C53.8242 18.8597 53.4908 19.9299 53.3329 20.7983C53.2803 21.1053 53.061 21.9035 52.8505 22.5614C52.6312 23.2281 52.3242 24.4123 52.1575 25.193C51.8066 26.8509 50.9908 31.9386 50.9119 33C50.7364 35.2895 51.7803 39.0702 53.1049 40.9035C54.1224 42.3334 56.447 44.1404 58.4996 45.1141C60.4031 46.0088 63.947 46.9649 65.9557 47.1228C68.8856 47.3509 72.0435 46.7895 74.3417 45.6316C75.5347 45.0351 75.9908 44.6842 77.2364 43.4123C78.4996 42.1141 78.9206 41.6053 79.7277 40.3158C80.7101 38.772 81.0873 37.6228 81.7189 34.2983L82.1224 32.1492L82.0785 30.4386C82.0084 28.0176 81.5259 24.2632 81.0084 22.079C80.9382 21.7807 80.7978 21 80.6926 20.3509C80.2891 17.7106 79.6575 15.193 78.8154 12.8509C78.5873 12.2193 78.3154 11.3772 78.2013 10.9649C77.9119 9.88599 77.8242 9.68424 76.9557 7.98248C76.5171 7.1316 76.0961 6.21932 76.0171 5.95617C75.9031 5.56143 75.8154 5.42108 75.5259 5.21932C75.1224 4.93862 74.7978 4.55266 74.0522 3.46494C73.3768 2.47371 73.0698 2.17546 71.9733 1.50002C70.9996 0.894762 70.2452 0.517569 69.4908 0.254411C68.8417 0.0263404 67.6312 -0.043835 67.1049 0.122832Z" fill="white"/>
<path d="M30.6754 0.2632C29.5789 0.543901 27.6315 1.75443 26.5438 2.84215C25.1315 4.23688 24.2719 5.4825 23.1929 7.67548C22.1842 9.73688 21.5263 11.5351 20.3245 15.5351C19.4649 18.3948 18.4736 23.9036 18.114 27.8597C17.6403 33.1579 18.3859 37.079 20.5701 40.7106C21.307 41.9299 21.9649 42.7544 22.8859 43.6141C24.6666 45.2895 26.9035 46.386 29.6578 46.9474C30.5087 47.1141 30.921 47.1492 32.4122 47.1492C34.2543 47.1492 34.5877 47.1053 36.5789 46.6579C40.2105 45.8334 42.0701 45.0527 44.2105 43.465C47.2894 41.1667 49.035 38.0878 49.1842 34.693C49.2719 32.5965 48.6315 28.3246 47.5789 23.9474C46.0614 17.6667 43.0964 10.0439 40.7193 6.3246C39.728 4.77197 38.9122 3.78952 37.6842 2.64916C36.5087 1.56145 35.4473 0.938638 34.035 0.482498C33.421 0.289515 33.0877 0.236884 32.1491 0.210568C31.5263 0.193024 30.8596 0.21934 30.6754 0.2632Z" fill="white"/>
<path d="M88.5613 33.2894C87.3069 33.6403 86.1928 34.3946 84.4911 36.0876C83.1051 37.456 83.0437 37.535 82.3332 38.7718C80.7542 41.4999 79.3156 44.6578 78.2981 47.5964C78.0876 48.2192 77.6314 49.4999 77.2981 50.4385C76.1051 53.7455 75.7104 55.3596 75.6402 57.1929C75.6051 58.1052 75.6227 58.5525 75.7367 59.0876C75.8156 59.4824 75.8771 60.1929 75.8771 60.6666C75.8771 62.1753 76.3771 63.4824 77.4911 64.8771C78.3156 65.9034 78.9999 66.4999 80.0174 67.0701C81.9999 68.1841 84.0963 68.9824 85.9209 69.3332C87.0788 69.5438 87.4385 69.5789 88.7367 69.5789C90.7279 69.5701 92.1928 69.2368 93.6314 68.4824C94.3595 68.0964 95.3156 67.2543 95.5613 66.7631C95.6402 66.6139 95.8507 66.3946 96.0349 66.2718C96.9735 65.6315 97.9999 64.2806 98.4648 63.0789C98.5788 62.7631 98.8771 61.9824 99.1139 61.3508C99.7981 59.5525 99.9385 58.7368 99.9385 56.535C99.9472 54.9648 99.9121 54.4824 99.7104 53.2455C99.5876 52.4473 99.4209 51.1052 99.342 50.2631C99.0613 47.149 98.6314 44.7982 97.9823 42.7631C97.5876 41.535 96.8683 39.6929 96.4999 38.956C95.9034 37.7806 94.7542 35.956 94.1314 35.1929C93.4735 34.3946 92.1314 33.5701 91.0437 33.2982C90.3595 33.1315 89.1665 33.1227 88.5613 33.2894Z" fill="white"/>
<path d="M8.92083 33.386C7.78925 33.6579 6.42083 34.4913 5.75416 35.3071C4.89452 36.3597 3.42083 38.9474 2.8068 40.4825C2.38574 41.5439 1.63136 44.1843 1.32434 45.6579C0.920831 47.6141 0.59627 50.1492 0.385744 52.8948C0.359428 53.3071 0.271708 53.8597 0.192761 54.1229C0.0173225 54.7281 -0.00899331 57.5176 0.157673 58.5176C0.55241 60.8685 1.43838 63.1492 2.70153 65.0439C3.38574 66.0702 4.87697 67.6229 5.6489 68.1053C7.17522 69.0702 9.21908 69.5878 11.5349 69.579C13.5787 69.579 15.2629 69.2193 16.8857 68.4211C20.8068 66.5088 23.0787 63.272 23.684 58.7193C23.8331 57.6492 23.7542 54.5351 23.5612 53.465C23.3068 52.0965 21.7454 47.0878 21.0261 45.3509C20.5349 44.1755 18.0349 39.2281 17.5612 38.5088C15.7278 35.693 13.6664 33.8948 11.6928 33.386C11.0349 33.2106 9.62259 33.2106 8.92083 33.386Z" fill="white"/>
<path d="M47.4122 49.2982C39.3771 49.6316 33.8771 51.5877 30.5174 55.307C29.7192 56.193 29.1578 57.0877 27.3332 60.3859C25.7894 63.1666 25.1402 64.2105 24.1753 65.421C23.4999 66.2719 21.4209 67.7193 16.0964 71.0526C12.5087 73.2982 9.75428 75.1228 8.51744 76.0877C7.342 77 5.57007 78.7456 4.68411 79.8684C2.10516 83.1316 0.666561 86.8333 0.552526 90.4649C0.473579 92.8508 0.824456 94.693 2.07884 98.421C3.02621 101.246 3.38586 102.167 4.03498 103.403C6.43849 107.974 10.1402 111.009 14.456 111.939C15.7017 112.202 18.5613 112.272 20.1753 112.061C21.9034 111.842 23.6052 111.482 26.228 110.781C29.9648 109.781 31.4034 109.412 32.5262 109.175L33.5876 108.947L34.8859 109.123C35.5964 109.219 37.4122 109.509 38.9034 109.772C44.5876 110.772 44.9999 110.807 49.5174 110.798C55.2718 110.781 58.1578 110.509 63.0701 109.5C66.1403 108.868 65.9034 108.895 67.1227 109.07C68.5964 109.272 69.9385 109.605 73.0262 110.526C77.342 111.807 78.4297 112.044 80.7894 112.202C84.0964 112.43 86.3683 112.053 88.8596 110.868C91.4648 109.632 93.921 107.368 95.2806 104.956C99.2192 97.9912 100.491 91.1228 98.8245 85.9035C97.6139 82.0877 94.7894 78.4473 90.6666 75.3596C89.149 74.2193 87.149 72.8859 84.2543 71.0965C76.7718 66.4561 75.6139 65.3947 73.2367 61.0087C70.5438 56.0351 69.7806 54.9473 68.0438 53.6491C64.7894 51.2105 60.6403 49.8509 55.0438 49.3859C53.5613 49.2631 49.3859 49.2105 47.4122 49.2982Z" fill="white"/>
</g>
<defs>
<clipPath id="clip0_18_3">
<rect width="100" height="112.281" fill="white"/>
</clipPath>
</defs>
</svg>
